<?xml version="1.0" standalone="no"?>
<!DOCTYPE svg PUBLIC "-//W3C//DTD SVG 20010904//EN"
 "http://www.w3.org/TR/2001/REC-SVG-20010904/DTD/svg10.dtd">
<svg version="1.0" xmlns="http://www.w3.org/2000/svg"
 width="240.000000pt" height="240.000000pt" viewBox="0 0 240.000000 240.000000"
 preserveAspectRatio="xMidYMid meet">

<g transform="translate(0.000000,240.000000) scale(0.100000,-0.100000)"
fill="#000000" stroke="none">
<path d="M800 2154 c-194 -51 -348 -193 -429 -395 -66 -165 -80 -337 -62 -754
15 -363 26 -468 57 -532 45 -95 145 -163 302 -205 60 -16 117 -22 260 -25 202
-6 296 4 439 43 l93 26 62 -25 c77 -30 193 -57 248 -57 51 0 105 22 119 48 7
14 11 118 11 296 l0 275 95 252 c52 138 95 261 95 274 0 33 -69 91 -131 110
-55 16 -111 12 -128 -9 -6 -7 -55 -118 -110 -247 l-100 -234 -1 223 c0 271
-12 389 -51 506 -39 117 -87 196 -170 277 -73 73 -170 128 -274 154 -75 19
-251 19 -325 -1z m340 -82 c97 -34 143 -63 215 -136 106 -107 164 -238 181
-410 6 -58 5 -68 -7 -63 -8 3 -43 18 -79 34 l-65 28 -415 0 -415 0 -89 -36
-88 -37 7 57 c10 88 43 199 83 281 73 149 231 273 382 299 79 14 225 5 290
-17z m205 -629 c14 -14 16 -35 13 -149 -3 -125 -4 -134 -28 -159 -23 -25 -30
-27 -85 -23 -44 3 -70 11 -100 31 -126 86 -128 87 -176 87 -42 0 -59 -7 -131
-57 -64 -44 -93 -57 -130 -61 -110 -10 -128 17 -128 193 0 64 5 125 10 136 10
18 25 19 375 19 326 0 365 -2 380 -17z m612 -18 c69 -29 98 -75 48 -75 -31 0
-93 25 -117 47 -44 40 -1 57 69 28z m-1442 -110 c0 -63 -1 -115 -3 -115 -1 0
-32 23 -67 52 -55 43 -65 56 -65 83 0 28 6 34 63 62 34 18 64 32 67 32 3 1 5
-51 5 -114z m998 75 c23 -11 27 -19 27 -56 0 -38 -4 -46 -47 -81 -77 -64 -73
-68 -73 62 l0 115 33 -14 c17 -7 44 -19 60 -26z m385 -65 c28 -14 57 -25 65
-25 24 0 29 -17 17 -55 -6 -19 -13 -35 -15 -35 -1 0 -22 9 -46 19 -33 15 -45
17 -51 8 -15 -24 -7 -36 37 -53 25 -9 45 -18 45 -19 0 -14 -33 -75 -40 -75 -5
0 -25 8 -45 17 -31 15 -37 15 -45 3 -16 -25 -12 -30 35 -50 25 -11 45 -22 45
-25 0 -3 -7 -21 -15 -41 l-14 -35 -38 17 c-21 9 -44 18 -50 21 -7 3 -13 1 -13
-5 0 -6 -2 -17 -5 -25 -4 -10 8 -19 40 -31 25 -10 45 -20 45 -23 0 -3 -5 -22
-11 -43 l-11 -37 -49 20 c-52 22 -55 22 -61 -6 -2 -14 10 -24 52 -41 l55 -22
3 -66 3 -66 -64 -11 c-88 -15 -174 -14 -265 5 -42 9 -81 18 -86 21 -4 3 50 65
122 137 l129 131 88 208 c49 114 90 207 91 207 1 0 25 -11 52 -25z m-1432
-185 c113 -90 143 -103 229 -98 69 3 77 6 159 61 55 36 96 57 115 57 18 0 54
-17 96 -46 88 -61 123 -74 192 -74 70 0 114 20 208 95 l70 56 3 -148 3 -147
-155 -156 c-84 -85 -159 -165 -166 -178 -8 -17 -8 -32 0 -57 11 -33 76 -102
119 -124 12 -7 19 -16 16 -20 -3 -5 -47 -17 -97 -27 -142 -28 -453 -25 -563 5
-102 28 -160 56 -212 104 -54 50 -70 95 -83 242 -14 151 -25 515 -16 515 3 0
40 -27 82 -60z"/>
<path d="M677 1358 c-41 -32 -41 -105 1 -138 33 -27 68 -25 97 5 32 31 34 91
5 123 -23 25 -76 30 -103 10z"/>
<path d="M1167 1358 c-41 -32 -41 -105 1 -138 33 -27 68 -25 97 5 32 31 34 96
5 125 -23 23 -77 27 -103 8z"/>
<path d="M756 965 c-16 -25 -16 -27 6 -45 94 -79 304 -80 406 -3 l33 25 -22
24 -22 23 -29 -21 c-37 -26 -110 -48 -158 -48 -49 0 -131 25 -163 50 -32 25
-31 25 -51 -5z"/>
</g>
</svg>
